<mxfile host="app.diagrams.net" modified="2024-04-22T09:46:52.864Z" agent="Mozilla/5.0 (X11; Linux x86_64) AppleWebKit/537.36 (KHTML, like Gecko) Chrome/123.0.0.0 Safari/537.36" version="24.2.7" etag="oba6UhWc8udU259mtVKo" type="github">
  <diagram name="Page-1" id="QpAsIc9VxQo2tAjJdrUa">
    <mxGraphModel>
      <root>
        <mxCell id="0" />
        <mxCell id="1" parent="0" />
      </root>
    </mxGraphModel>
  </diagram>
</mxfile>
